<svg xmlns="http://www.w3.org/2000/svg" viewBox="0 0 626 128">
  <svg width="128" height="128" viewBox="0 0 128 128">
    <rect x="9" y="9" width="22" height="22" rx="7" fill="#f1eeff" stroke="#7c5cff" stroke-width="3.2"/>
    <rect x="37" y="9" width="22" height="22" rx="7" fill="#f1eeff" stroke="#7c5cff" stroke-width="3.2"/>
    <rect x="65" y="9" width="22" height="22" rx="7" fill="#f1eeff" stroke="#7c5cff" stroke-width="3.2"/>
    <rect x="93" y="9" width="22" height="22" rx="7" fill="#7c5cff" stroke="#7c5cff" stroke-width="3.2"/>
    <rect x="65" y="37" width="22" height="22" rx="7" fill="#f1eeff" stroke="#7c5cff" stroke-width="3.2"/>
    <rect x="37" y="65" width="22" height="22" rx="7" fill="#f1eeff" stroke="#7c5cff" stroke-width="3.2"/>
    <rect x="9" y="93" width="22" height="22" rx="7" fill="#f1eeff" stroke="#7c5cff" stroke-width="3.2"/>
    <rect x="37" y="93" width="22" height="22" rx="7" fill="#f1eeff" stroke="#7c5cff" stroke-width="3.2"/>
    <rect x="65" y="93" width="22" height="22" rx="7" fill="#f1eeff" stroke="#7c5cff" stroke-width="3.2"/>
    <rect x="93" y="93" width="22" height="22" rx="7" fill="#f1eeff" stroke="#7c5cff" stroke-width="3.2"/>
  </svg>
  <path transform="translate(156 92)" fill="#13121a" d="M2.03 0L2.03 -9.3L27.38 -43.65L3.23 -43.65L3.23 -53.25L41.55 -53.25L41.55 -43.95L15.68 -9.6L42.53 -9.6L42.53 0ZM67.71 0.9Q61.56 0.9 56.99 -1.69Q52.41 -4.27 49.86 -9Q47.31 -13.72 47.31 -20.1Q47.31 -26.47 49.86 -31.16Q52.41 -35.85 56.99 -38.47Q61.56 -41.1 67.71 -41.1Q73.86 -41.1 78.44 -38.47Q83.01 -35.85 85.56 -31.16Q88.11 -26.47 88.11 -20.1Q88.11 -13.72 85.56 -9Q83.01 -4.27 78.44 -1.69Q73.86 0.9 67.71 0.9ZM67.71 -7.72Q71.91 -7.72 74.24 -10.99Q76.56 -14.25 76.56 -20.1Q76.56 -25.95 74.24 -29.21Q71.91 -32.47 67.71 -32.47Q63.51 -32.47 61.18 -29.21Q58.86 -25.95 58.86 -20.1Q58.86 -14.25 61.18 -10.99Q63.51 -7.72 67.71 -7.72ZM95.84 0L95.84 -40.2L106.48 -40.2L106.86 -28.5L106.04 -28.72Q107.01 -34.8 109.48 -37.5Q111.96 -40.2 116.31 -40.2L119.98 -40.2L119.98 -30.9L116.31 -30.9Q113.16 -30.9 111.14 -30.07Q109.11 -29.25 108.1 -27.45Q107.09 -25.65 107.09 -22.57L107.09 0ZM145.91 0.9Q139.76 0.9 135.18 -1.69Q130.6 -4.27 128.05 -9Q125.51 -13.72 125.51 -20.1Q125.51 -26.47 128.05 -31.16Q130.6 -35.85 135.18 -38.47Q139.76 -41.1 145.91 -41.1Q152.05 -41.1 156.63 -38.47Q161.2 -35.85 163.76 -31.16Q166.3 -26.47 166.3 -20.1Q166.3 -13.72 163.76 -9Q161.2 -4.27 156.63 -1.69Q152.05 0.9 145.91 0.9ZM145.91 -7.72Q150.1 -7.72 152.43 -10.99Q154.76 -14.25 154.76 -20.1Q154.76 -25.95 152.43 -29.21Q150.1 -32.47 145.91 -32.47Q141.7 -32.47 139.38 -29.21Q137.05 -25.95 137.05 -20.1Q137.05 -14.25 139.38 -10.99Q141.7 -7.72 145.91 -7.72ZM174.03 0L174.03 -40.2L184.15 -40.2L184.61 -28.42L183.18 -28.8Q183.78 -33.3 185.62 -36Q187.46 -38.7 190.23 -39.9Q193.01 -41.1 196.3 -41.1Q200.65 -41.1 203.69 -39.22Q206.73 -37.35 208.34 -33.94Q209.96 -30.52 209.96 -25.87L209.96 0L198.71 0L198.71 -22.12Q198.71 -25.35 198.18 -27.6Q197.65 -29.85 196.3 -31.01Q194.96 -32.17 192.55 -32.17Q189.03 -32.17 187.15 -29.59Q185.28 -27 185.28 -22.12L185.28 0Z"/>
  <path transform="translate(388.90 92)" fill="#6440f0" d="M18.08 0L18.08 -48.3L0.98 -48.3L0.98 -53.25L40.28 -53.25L40.28 -48.3L23.18 -48.3L23.18 0ZM47.35 0L47.35 -53.25L52.3 -53.25L52.3 -30.3L51.7 -30.37Q52.3 -33.9 54.14 -36.15Q55.98 -38.4 58.75 -39.52Q61.53 -40.65 64.83 -40.65Q69.18 -40.65 72.1 -38.7Q75.03 -36.75 76.53 -33.34Q78.03 -29.92 78.03 -25.57L78.03 0L73.08 0L73.08 -23.77Q73.08 -29.77 70.83 -33Q68.58 -36.22 63.7 -36.22Q58.45 -36.22 55.38 -32.89Q52.3 -29.55 52.3 -23.7L52.3 0ZM105.53 0.9Q99.83 0.9 95.85 -1.76Q91.88 -4.42 89.74 -9.11Q87.6 -13.8 87.6 -19.87Q87.6 -25.95 89.7 -30.64Q91.8 -35.32 95.74 -37.99Q99.68 -40.65 105.23 -40.65Q110.55 -40.65 114.45 -38.1Q118.35 -35.55 120.41 -30.9Q122.48 -26.25 122.48 -20.02L122.48 -18.45L92.78 -18.45Q93.08 -11.4 96.45 -7.61Q99.83 -3.82 105.53 -3.82Q109.88 -3.82 112.65 -5.92Q115.43 -8.02 116.48 -11.47L121.8 -11.1Q120.3 -5.85 116.03 -2.47Q111.75 0.9 105.53 0.9ZM92.78 -22.87L117.08 -22.87Q116.7 -29.25 113.55 -32.59Q110.4 -35.92 105.23 -35.92Q100.05 -35.92 96.75 -32.55Q93.45 -29.17 92.78 -22.87ZM132.1 0L132.1 -39.75L136.6 -39.75L136.83 -29.02L136.15 -29.62Q136.6 -32.92 138.33 -35.4Q140.05 -37.87 142.68 -39.26Q145.3 -40.65 148.53 -40.65Q153.4 -40.65 156.63 -37.54Q159.85 -34.42 160.53 -28.95L159.48 -29.1Q160 -32.7 161.69 -35.29Q163.38 -37.87 166.08 -39.26Q168.78 -40.65 172.15 -40.65Q176.13 -40.65 178.98 -38.81Q181.83 -36.97 183.33 -33.6Q184.83 -30.22 184.83 -25.5L184.83 0L179.88 0L179.88 -24Q179.88 -29.92 177.59 -33.07Q175.3 -36.22 171.03 -36.22Q168.03 -36.22 165.74 -34.65Q163.45 -33.07 162.14 -30.22Q160.83 -27.37 160.83 -23.55L160.83 0L155.88 0L155.88 -23.77Q155.88 -29.55 153.81 -32.89Q151.75 -36.22 147.33 -36.22Q144.33 -36.22 142 -34.65Q139.68 -33.07 138.36 -30.3Q137.05 -27.52 137.05 -23.77L137.05 0ZM212.33 0.9Q206.63 0.9 202.65 -1.76Q198.68 -4.42 196.54 -9.11Q194.4 -13.8 194.4 -19.87Q194.4 -25.95 196.5 -30.64Q198.6 -35.32 202.54 -37.99Q206.48 -40.65 212.03 -40.65Q217.35 -40.65 221.25 -38.1Q225.15 -35.55 227.21 -30.9Q229.28 -26.25 229.28 -20.02L229.28 -18.45L199.58 -18.45Q199.88 -11.4 203.25 -7.61Q206.63 -3.82 212.33 -3.82Q216.68 -3.82 219.45 -5.92Q222.23 -8.02 223.28 -11.47L228.6 -11.1Q227.1 -5.85 222.83 -2.47Q218.55 0.9 212.33 0.9ZM199.58 -22.87L223.88 -22.87Q223.5 -29.25 220.35 -32.59Q217.2 -35.92 212.03 -35.92Q206.85 -35.92 203.55 -32.55Q200.25 -29.17 199.58 -22.87Z"/>
</svg>
